:SAMPLES-PER-SECOND 30
:FULLY-SPECIFIED
:DEGREES
1
root  85.6339 40.291 -2.21844 -157.237 -86.9765 155.163
RightUpLeg  1.06931 -8.7195 -5.66459
RightLeg  5.63026 -3.83963 3.69211
RightFoot  -3.47633 0.098385 -1.86642
RightToes  0.00048216 0.542163 -0.142577
Spine  5.83207 -0.681358 2.4535
Spine1  2.27743 0.360445 -4.40767
HEad  -2.45705 2.66522 1.07931
LeftShoulder1  0.512173 0.564708 -9.91605
LeftArm  -20.9456 11.0243 -7.30473
LeftForeArm  5.43905 -0.988684 -0.237382
LeftHand  -0.25398 0.0180481 5.50724
RightShoulder  0.639529 0.877762 6.99921
RightArm  -23.0483 -5.95546 4.50334
RightForeArm  -0.146927 2.62259 2.09417
RightHand  -1.06916 2.85476 -15.2786
LeftUpLeg  3.12093 5.27653 2.93659
LeftLeg  2.40911 15.529 -3.79827
LeftFoot  -3.13442 0.0555852 -0.486988
LeftToes  1.0625e-005 4.65855e-005 -8.18498e-006
2
root  85.6237 40.291 -2.21598 -156.454 -87.0288 154.367
RightUpLeg  1.11132 -8.7466 -5.70031
RightLeg  5.63006 -3.86477 3.69689
RightFoot  -3.50722 0.0958865 -1.82755
RightToes  0.00048216 0.542163 -0.142577
Spine  5.75173 -0.513192 2.41322
Spine1  2.3046 0.542961 -4.44214
HEad  -2.36903 2.20464 1.18754
LeftShoulder1  0.592452 0.0600687 -9.71023
LeftArm  -21.2849 10.9323 -7.41699
LeftForeArm  5.64666 -0.562906 -0.0266614
LeftHand  -0.25398 0.0180481 5.50724
RightShoulder  0.646148 0.77344 7.56968
RightArm  -22.8686 -6.13285 3.86062
RightForeArm  -0.906966 2.76553 2.17642
RightHand  -1.05338 2.58365 -15.5212
LeftUpLeg  3.14136 5.27109 2.9213
LeftLeg  2.41573 15.4774 -3.80675
LeftFoot  -3.14414 0.0567802 -0.505558
LeftToes  1.0625e-005 4.65855e-005 -8.18498e-006
3
root  85.6064 40.291 -2.21023 -155.676 -87.0837 153.59
RightUpLeg  1.15435 -8.7864 -5.7436
RightLeg  5.62977 -3.87543 3.71366
RightFoot  -3.52619 0.0939287 -1.7971
RightToes  0.00048216 0.542163 -0.142577
Spine  5.56934 -0.341734 2.4185
Spine1  2.49481 0.758649 -4.58389
HEad  -2.24515 1.80295 1.28449
LeftShoulder1  0.651572 -0.371927 -9.2976
LeftArm  -21.7386 10.7771 -7.7465
LeftForeArm  5.80435 -0.110882 0.214637
LeftHand  -0.25398 0.0180481 5.50724
RightShoulder  0.660698 0.692744 8.28214
RightArm  -22.6775 -6.3422 3.10991
RightForeArm  -1.7136 2.97757 2.27463
RightHand  -1.03759 2.37619 -15.6777
LeftUpLeg  3.14836 5.29566 2.92461
LeftLeg  2.44627 15.3869 -3.84478
LeftFoot  -3.17568 0.0565403 -0.50183
LeftToes  1.0625e-005 4.65855e-005 -8.18498e-006
4
root  85.5893 40.2909 -2.20414 -155.953 -87.0674 153.891
RightUpLeg  1.15046 -8.7902 -5.74605
RightLeg  5.63511 -3.85516 3.7143
RightFoot  -3.52117 0.0946896 -1.80894
RightToes  0.00048216 0.542163 -0.142577
Spine  5.38087 -0.207442 2.42369
Spine1  2.76068 0.929743 -4.68451
HEad  -2.18594 1.64457 1.28034
LeftShoulder1  0.670249 -0.571316 -8.90528
LeftArm  -21.8574 10.7562 -8.06532
LeftForeArm  5.73002 -0.0103719 0.256266
LeftHand  -0.25398 0.0180481 5.50724
RightShoulder  0.660373 0.586685 8.72902
RightArm  -22.576 -6.41261 2.66092
RightForeArm  -1.72709 3.1165 2.31262
RightHand  -1.03465 2.43011 -15.5332
LeftUpLeg  3.13277 5.33472 2.94719
LeftLeg  2.48864 15.3658 -3.87812
LeftFoot  -3.20784 0.0539597 -0.461726
LeftToes  1.0625e-005 4.65855e-005 -8.18498e-006
5
root  85.5736 40.2904 -2.20027 -156.78 -87.0034 154.741
RightUpLeg  1.12326 -8.75431 -5.71645
RightLeg  5.66124 -3.83532 3.68154
RightFoot  -3.53738 0.0969977 -1.84484
RightToes  0.00048216 0.542163 -0.142577
Spine  5.21445 -0.0875492 2.26592
Spine1  3.05111 1.0134 -4.46417
HEad  -2.29281 1.54713 1.1447
LeftShoulder1  0.698618 -0.752666 -8.87547
LeftArm  -21.34 10.9131 -8.12291
LeftForeArm  6.18245 -0.219762 0.0299127
LeftHand  -0.25398 0.0180481 5.50724
RightShoulder  0.632639 0.413382 8.73306
RightArm  -22.6732 -6.31199 2.59994
RightForeArm  -1.13635 3.12423 2.25612
RightHand  -1.03905 2.54762 -15.3783
LeftUpLeg  3.13023 5.34063 2.95161
LeftLeg  2.50797 15.4373 -3.87118
LeftFoot  -3.2205 0.0511118 -0.417466
LeftToes  1.0625e-005 4.65855e-005 -8.18498e-006
6
root  85.558 40.2901 -2.19797 -157.125 -86.9568 155.109
RightUpLeg  1.09417 -8.72466 -5.70193
RightLeg  5.69338 -3.81861 3.64823
RightFoot  -3.57538 0.097071 -1.84598
RightToes  0.00048216 0.542163 -0.142577
Spine  4.97893 -0.0988099 2.21626
Spine1  3.46361 1.00534 -4.42553
HEad  -2.50729 1.53857 1.07413
LeftShoulder1  0.701483 -0.774827 -8.83909
LeftArm  -20.1873 11.048 -8.31077
LeftForeArm  8.23622 -0.542606 -0.433513
LeftHand  -0.25398 0.0180481 5.50724
RightShoulder  0.620973 0.36453 8.61869
RightArm  -22.9651 -6.11997 2.77849
RightForeArm  -0.564311 3.01768 2.13661
RightHand  -1.05541 2.65856 -15.4102
LeftUpLeg  3.12933 5.30626 2.92153
LeftLeg  2.51727 15.525 -3.83085
LeftFoot  -3.23686 0.051517 -0.423763
LeftToes  1.0625e-005 4.65855e-005 -8.18498e-006
7
root  85.5427 40.2897 -2.1947 -157.071 -86.9446 155.1
RightUpLeg  1.05121 -8.72663 -5.71199
RightLeg  5.72434 -3.79383 3.64808
RightFoot  -3.59267 0.0935748 -1.7916
RightToes  0.00048216 0.542163 -0.142577
Spine  4.62985 -0.308648 2.82159
Spine1  4.00149 1.05793 -5.52768
HEad  -2.61392 1.65159 1.39864
LeftShoulder1  0.619362 -0.489685 -7.86833
LeftArm  -20.7283 11.0986 -8.88537
LeftForeArm  8.08233 -0.477466 -0.223547
LeftHand  -0.25398 0.0180481 5.50724
RightShoulder  0.674944 0.590707 9.11116
RightArm  -23.1883 -5.99363 2.76582
RightForeArm  -0.29433 2.86327 2.04173
RightHand  -1.08911 2.90705 -15.4382
LeftUpLeg  3.08316 5.2722 2.88806
LeftLeg  2.56859 15.5771 -3.7837
LeftFoot  -3.28658 0.0548871 -0.476138
LeftToes  1.0625e-005 4.65855e-005 -8.18498e-006
8
root  85.528 40.2889 -2.19005 -157.422 -86.9444 155.489
RightUpLeg  1.02871 -8.7306 -5.7056
RightLeg  5.73884 -3.78765 3.65968
RightFoot  -3.59803 0.0904495 -1.74299
RightToes  0.00048216 0.542163 -0.142577
Spine  4.30791 -0.157515 2.56749
Spine1  4.45769 1.11743 -5.03773
HEad  -2.49863 1.54024 1.01331
LeftShoulder1  0.668302 -0.714835 -8.24758
LeftArm  -20.9588 10.9043 -8.68865
LeftForeArm  7.6541 -0.213104 -0.107383
LeftHand  -0.25398 0.0180481 5.50724
RightShoulder  0.658151 0.580528 8.69857
RightArm  -23.2481 -6.13314 2.92651
RightForeArm  -0.243997 2.80059 2.00316
RightHand  -1.11347 3.09891 -15.4345
LeftUpLeg  3.03274 5.26975 2.89231
LeftLeg  2.64082 15.5998 -3.75239
LeftFoot  -3.3449 0.0564821 -0.500925
LeftToes  1.0625e-005 4.65855e-005 -8.18498e-006
9
root  85.5121 40.2878 -2.18632 -158.142 -86.9406 156.194
RightUpLeg  1.08689 -8.7115 -5.67866
RightLeg  5.71174 -3.80248 3.65436
RightFoot  -3.63605 0.0904 -1.74222
RightToes  0.00048216 0.542163 -0.142577
Spine  4.0746 0.0209339 2.17774
Spine1  4.85437 1.14102 -4.29918
HEad  -2.48689 1.52208 0.649354
LeftShoulder1  0.730604 -0.96116 -8.80038
LeftArm  -20.9635 10.7402 -8.41437
LeftForeArm  7.38459 -0.0361162 -0.0891464
LeftHand  -0.25398 0.0180481 5.50724
RightShoulder  0.621386 0.49358 8.04151
RightArm  -23.3419 -6.26477 3.26183
RightForeArm  -0.750139 2.76667 1.98618
RightHand  -1.08686 2.76371 -15.6683
LeftUpLeg  3.07992 5.28909 2.92563
LeftLeg  2.63742 15.5938 -3.75348
LeftFoot  -3.37624 0.0564409 -0.500286
LeftToes  1.0625e-005 4.65855e-005 -8.18498e-006
10
root  85.4935 40.2848 -2.18171 -158.734 -86.9338 156.755
RightUpLeg  1.17416 -8.71258 -5.67936
RightLeg  5.66831 -3.76159 3.67498
RightFoot  -3.69105 0.089771 -1.73244
RightToes  0.00048216 0.542163 -0.142577
Spine  3.70764 0.377375 1.22686
Spine1  5.48554 1.12277 -2.60805
HEad  -2.75398 1.34288 -0.0327153
LeftShoulder1  0.866976 -1.44557 -10.1394
LeftArm  -20.8705 10.4789 -7.72377
LeftForeArm  7.08313 0.105996 -0.110062
LeftHand  -0.25398 0.0180481 5.50724
RightShoulder  0.531029 0.16207 6.87947
RightArm  -23.5726 -6.3886 3.77097
RightForeArm  -1.60899 2.82246 1.96408
RightHand  -1.01845 2.03187 -16.0706
LeftUpLeg  3.15945 5.2892 2.94556
LeftLeg  2.6282 15.5736 -3.73927
LeftFoot  -3.47179 0.0635424 -0.61065
LeftToes  1.0625e-005 4.65855e-005 -8.18498e-006
11
root  85.4746 40.2751 -2.1663 -159.267 -86.9371 157.326
RightUpLeg  1.1559 -8.81318 -5.75048
RightLeg  5.71982 -3.61645 3.79829
RightFoot  -3.75847 0.0838306 -1.65085
RightToes  0.00048216 0.542163 -0.142577
Spine  3.57643 0.331892 1.45469
Spine1  5.76951 1.16188 -2.94524
HEad  -2.98921 1.43333 0.169288
LeftShoulder1  0.824113 -1.24578 -9.90846
LeftArm  -21.1558 10.35 -7.99594
LeftForeArm  6.88996 0.0530009 -0.0387369
LeftHand  -0.25398 0.0180481 5.50724
RightShoulder  0.532375 0.135976 7.0204
RightArm  -23.6667 -6.36015 3.75504
RightForeArm  -1.91106 2.90857 1.96941
RightHand  -0.990036 1.79956 -16.1159
LeftUpLeg  3.02348 5.22685 2.90476
LeftLeg  2.94752 15.6041 -3.55498
LeftFoot  -3.8556 0.0817994 -0.901005
LeftToes  1.0625e-005 4.65855e-005 -8.18498e-006
12
root  85.4575 40.2539 -2.12723 -160.29 -86.9764 158.415
RightUpLeg  1.06222 -9.04317 -5.8919
RightLeg  5.9099 -3.40465 4.02812
RightFoot  -3.92002 0.0709757 -1.5019
RightToes  0.00048216 0.542163 -0.142577
Spine  3.72215 0.0549547 2.45233
Spine1  5.71454 1.23838 -4.40973
HEad  -3.10852 1.42208 0.722862
LeftShoulder1  0.699288 -0.771714 -8.84305
LeftArm  -21.6712 10.4178 -8.82074
LeftForeArm  6.67167 -0.086621 0.109057
LeftHand  -0.25398 0.0180481 5.50724
RightShoulder  0.571183 0.21186 7.87127
RightArm  -23.775 -6.1844 3.52335
RightForeArm  -1.22235 3.01195 1.93894
RightHand  -1.0528 2.42009 -15.82
LeftUpLeg  2.56761 5.17628 2.77809
LeftLeg  3.89368 15.6422 -3.04548
LeftFoot  -4.695 0.0995178 -1.22885
LeftToes  1.0625e-005 4.65855e-005 -8.18498e-006
13
root  85.438 40.2215 -2.05882 -162.126 -86.9968 160.197
RightUpLeg  1.08947 -9.34025 -6.09534
RightLeg  6.1439 -3.08886 4.27723
RightFoot  -4.19814 0.0510302 -1.27233
RightToes  0.00048216 0.542163 -0.142577
Spine  3.93274 0.196087 2.34072
Spine1  5.73715 1.23825 -3.71289
HEad  -3.25604 1.00749 0.366748
LeftShoulder1  0.80886 -1.20911 -9.63395
LeftArm  -21.8569 10.6184 -8.66458
LeftForeArm  6.68798 -0.202039 0.207714
LeftHand  -0.25398 0.0180481 5.50724
RightShoulder  0.501634 -0.180943 7.5176
RightArm  -24.3454 -6.02053 3.93085
RightForeArm  -0.615513 3.24578 1.81021
RightHand  -1.16009 3.14571 -15.9748
LeftUpLeg  2.03372 5.38532 2.57225
LeftLeg  5.33827 15.5088 -2.25123
LeftFoot  -5.92118 0.102488 -1.41109
LeftToes  1.0625e-005 4.65855e-005 -8.18498e-006
14
root  85.4068 40.1896 -1.96593 -165.006 -86.7923 162.842
RightUpLeg  1.30415 -9.58636 -6.34768
RightLeg  6.34676 -2.50735 4.45462
RightFoot  -4.45788 0.0244003 -0.90987
RightToes  0.00048216 0.542163 -0.142577
Spine  4.56151 0.699486 1.4347
Spine1  5.28444 1.2689 -1.65746
HEad  -3.13259 0.746379 -0.485936
LeftShoulder1  1.11074 -2.33009 -11.8552
LeftArm  -21.7529 11.0784 -7.76243
LeftForeArm  7.21228 -0.505563 0.247848
LeftHand  -0.25398 0.0180481 5.50724
RightShoulder  0.402258 -0.695856 6.69488
RightArm  -25.1354 -6.0971 4.66768
RightForeArm  -1.41518 3.94152 1.76447
RightHand  -1.25798 3.34901 -16.9051
LeftUpLeg  1.77036 5.85896 2.33559
LeftLeg  6.77126 15.3975 -1.45879
LeftFoot  -7.29907 0.0939422 -1.41603
LeftToes  1.0625e-005 4.65855e-005 -8.18498e-006
15
root  85.3559 40.167 -1.85669 -168.929 -86.1941 166.441
RightUpLeg  1.55794 -9.71053 -6.59084
RightLeg  6.60097 -1.61875 4.52914
RightFoot  -4.67145 -0.00817317 -0.411936
RightToes  0.00048216 0.542163 -0.142577
Spine  5.43456 0.800051 1.65368
Spine1  4.65023 1.36778 -1.6634
HEad  -2.68267 1.48304 -0.611889
LeftShoulder1  1.19347 -2.42304 -13.0787
LeftArm  -22.1944 11.6692 -7.77091
LeftForeArm  7.50309 -1.24805 0.394189
LeftHand  -0.25398 0.0180481 5.50724
RightShoulder  0.455056 -0.399697 7.08759
RightArm  -25.9226 -6.39689 5.53668
RightForeArm  -3.11181 5.51745 1.96454
RightHand  -1.3549 3.45195 -17.9622
LeftUpLeg  1.88366 6.35785 2.1513
LeftLeg  7.82775 15.6805 -0.90269
LeftFoot  -8.68792 0.0830837 -1.33188
LeftToes  1.0625e-005 4.65855e-005 -8.18498e-006
